<?xml version="1.0" encoding="utf-8"?>
<svg version="1.1" id="Layer_1" xmlns="http://www.w3.org/2000/svg" xmlns:xlink="http://www.w3.org/1999/xlink" x="0px" y="0px"
	 viewBox="0 0 1685.807 1699.436" enable-background="new 0 0 1685.807 1699.436" xml:space="preserve">
<g id="g6_1_">
	<g>
		<path d="M235.284,878.317l93.77,34.129c31.779,11.567,14.407,60.057-17.617,48.402L183.03,914.112
			c-37.968-13.819-41.538-34.906-97.695-146.462c-6.739-15.654-15.807-16.953-36.016-24.309l31.723-87.158
			c87.187,31.469,61.832,5.189,147.108,187.075c7.302,16.446-8.777,33.809-25.737,27.636c-10.164-3.699-8.965-5.412-45.53-77.262
			c-8.505-15.026-17.555-21.088-28.362-25.219l-5.741,15.774c16.118,6.206,15.401,10.15,54.893,85.493
			C188.25,892.121,216.987,896.915,235.284,878.317z"/>
	</g>
	<g>
		<path d="M262.147,668.774l76.442,64.142c25.906,21.738-7.003,61.363-33.109,39.457l-104.679-87.836
			c-30.952-25.972-27.095-47.008-41.71-171.043c-0.978-17.015-9.055-21.337-25.53-35.161l59.62-71.052
			c71.166,59.391,56.329,26.024,74.252,226.107c1.236,17.951-19.811,28.768-33.637,17.167c-8.286-6.953-6.574-8.152-16.359-88.174
			c-2.853-17.029-9.283-25.82-18.026-33.398l-10.79,12.859c13.024,11.344,11,14.805,22.342,99.112
			C213.228,665.659,238.592,679.993,262.147,668.774z"/>
	</g>
	<g>
		<path d="M359.057,481.056l49.894,86.419c16.909,29.287-27.568,55.267-44.607,25.754l-68.324-118.341
			c-20.203-34.992-9.383-53.44,19.305-174.993c4.9-16.324-1.211-23.147-11.964-41.772l80.325-46.376
			c46.561,80.149,44.031,43.72-7.559,237.867c-4.978,17.291-28.456,20.257-37.479,4.627c-5.408-9.367-3.389-9.909,14.785-88.452
			c3.143-16.978,0.108-27.438-5.516-37.549l-14.537,8.393c8.358,15.115,5.273,17.675-12.904,100.776
			C314.154,461.397,333.086,483.542,359.057,481.056z"/>
	</g>
	<g>
		<path d="M514.326,337.804l17.328,98.272c5.872,33.304-44.808,42.506-50.726,8.944L457.2,310.448
			c-7.016-39.791,9.46-53.426,77.992-157.837c10.188-13.663,6.778-22.166,3.044-43.345l91.342-16.106
			c16.34,91.241,26.423,56.143-88.458,220.936c-10.592,14.546-33.668,9.303-36.802-8.47c-1.878-10.652,0.204-10.47,44.146-78.061
			c8.76-14.879,9.486-25.747,7.659-37.171l-16.531,2.915c2.685,17.062-1.09,18.412-46.593,90.285
			C478.855,303.973,489.071,331.257,514.326,337.804z"/>
	</g>
	<g>
		<path d="M709.227,256.296l-17.328,98.272c-5.872,33.304-56.643,24.617-50.726-8.944l23.729-134.573
			c7.016-39.791,27.162-46.969,127.272-121.643c14.246-9.355,13.951-18.51,17.685-39.69l91.342,16.106
			c-15.851,91.327,5.627,61.794-158.688,177.358c-14.928,10.046-34.819-2.773-31.685-20.547c1.878-10.652,3.773-9.769,68.182-58.254
			c13.321-10.985,17.72-20.95,19.911-32.31l-16.531-2.915c-3.313,16.951-7.321,16.929-74.662,68.905
			C687.465,212.373,687.734,241.507,709.227,256.296z"/>
	</g>
	<g>
		<path d="M920.251,246.364l-49.894,86.419c-16.909,29.287-61.647,3.759-44.607-25.754l68.324-118.341
			c20.203-34.992,41.589-34.846,161.201-70.778c16.587-3.918,19.44-12.623,30.193-31.248l80.325,46.376
			c-46.131,80.398-15.847,59.992-209.778,112.387c-17.464,4.335-31.771-14.515-22.747-30.144c5.408-9.367,6.887-7.889,83.994-31.422
			c16.275-5.767,23.816-13.626,29.761-23.552l-14.537-8.393c-8.911,14.796-12.67,13.404-93.726,39.213
			C914.824,197.647,905.112,225.115,920.251,246.364z"/>
	</g>
	<g>
		<path d="M1121.945,309.205l-76.442,64.142c-25.906,21.738-59.215-17.552-33.109-39.457l104.679-87.836
			c30.952-25.972,50.998-18.52,175.687-11.375c16.927,1.991,22.585-5.212,39.06-19.036l59.62,71.052
			c-70.847,59.771-35.41,50.954-235.566,33.861c-17.893-1.899-24.891-24.506-11.065-36.107c8.286-6.953,9.17-5.058,89.675-0.799
			c17.266,0.147,27.04-4.659,36.021-11.952l-10.79-12.859c-13.433,10.856-16.49,8.262-101.486,4.792
			C1133.508,261.57,1114.987,284.06,1121.945,309.205z"/>
	</g>
	<g>
		<path d="M1289.983,437.24l-93.77,34.129c-31.779,11.566-49.641-36.746-17.617-48.402l128.408-46.737
			c37.968-13.819,54.257,0.039,168.982,49.399c15.225,7.66,23.006,2.827,43.215-4.529l31.723,87.158
			c-87.017,31.936-50.702,35.77-232.94-48.749c-16.164-7.905-15.008-31.541,1.951-37.714c10.164-3.699,10.347-1.617,84.54,29.92
			c16.174,6.043,27.003,4.871,37.937,1.088l-5.741-15.774c-16.336,5.607-18.322,2.124-97.004-30.207
			C1317.141,396.432,1292.045,411.232,1289.983,437.24z"/>
	</g>
	<g>
		<path d="M1404.097,615.026h-99.788c-33.818,0-34.079-51.508,0-51.508h136.649c40.405,0,50.972,18.594,141.896,104.216
			c11.687,12.406,20.652,10.524,42.158,10.524v92.752c-92.692,0.248-59.878,16.272-202.219-125.479
			c-12.486-12.956-3.315-34.772,14.732-34.772c10.816,0,10.276,2.019,69.209,57.03c13.132,11.211,23.709,13.812,35.277,13.998V665
			c-17.269-0.319-17.943-4.27-80.823-61.563C1443.574,585.968,1414.93,591.291,1404.097,615.026z"/>
	</g>
	<g>
		<path d="M1450.522,821.119l-93.77-34.129c-31.779-11.567-14.407-60.057,17.617-48.402l128.408,46.737
			c37.968,13.819,41.538,34.906,97.695,146.462c6.739,15.654,15.807,16.953,36.016,24.309l-31.723,87.158
			c-87.187-31.469-61.832-5.189-147.107-187.075c-7.302-16.446,8.777-33.809,25.736-27.636c10.164,3.699,8.965,5.412,45.53,77.262
			c8.505,15.026,17.555,21.088,28.362,25.219l5.741-15.774c-16.118-6.206-15.401-10.15-54.893-85.493
			C1497.557,807.315,1468.82,802.521,1450.522,821.119z"/>
	</g>
	<g>
		<path d="M1423.66,1030.661l-76.442-64.142c-25.906-21.738,7.003-61.363,33.109-39.457l104.679,87.836
			c30.952,25.972,27.095,47.008,41.71,171.043c0.978,17.015,9.055,21.337,25.53,35.161l-59.62,71.052
			c-71.166-59.391-56.329-26.024-74.252-226.107c-1.236-17.951,19.811-28.768,33.637-17.167c8.286,6.953,6.574,8.152,16.359,88.174
			c2.853,17.029,9.283,25.821,18.026,33.398l10.79-12.859c-13.024-11.344-11-14.805-22.342-99.112
			C1472.579,1033.777,1447.215,1019.443,1423.66,1030.661z"/>
	</g>
	<g>
		<path d="M1326.75,1218.38l-49.894-86.419c-16.909-29.287,27.568-55.267,44.607-25.754l68.324,118.341
			c20.203,34.992,9.383,53.44-19.305,174.993c-4.9,16.324,1.211,23.147,11.964,41.772l-80.325,46.376
			c-46.561-80.149-44.031-43.72,7.559-237.867c4.978-17.291,28.456-20.257,37.479-4.627c5.408,9.367,3.389,9.909-14.785,88.452
			c-3.143,16.978-0.108,27.438,5.516,37.549l14.537-8.393c-8.358-15.115-5.273-17.675,12.904-100.776
			C1371.653,1238.039,1352.721,1215.894,1326.75,1218.38z"/>
	</g>
	<g>
		<path d="M1171.48,1361.632l-17.328-98.272c-5.872-33.304,44.808-42.505,50.726-8.944l23.729,134.573
			c7.016,39.791-9.46,53.426-77.992,157.837c-10.188,13.663-6.779,22.166-3.044,43.345l-91.342,16.106
			c-16.34-91.24-26.423-56.143,88.458-220.936c10.592-14.546,33.668-9.303,36.802,8.47c1.878,10.652-0.204,10.47-44.146,78.061
			c-8.76,14.879-9.486,25.747-7.659,37.171l16.531-2.915c-2.685-17.062,1.09-18.412,46.593-90.285
			C1206.952,1395.463,1196.736,1368.179,1171.48,1361.632z"/>
	</g>
	<g>
		<path d="M976.58,1443.14l17.328-98.272c5.872-33.304,56.643-24.617,50.726,8.944l-23.729,134.573
			c-7.016,39.791-27.162,46.969-127.272,121.643c-14.246,9.355-13.951,18.51-17.685,39.69l-91.342-16.106
			c15.851-91.327-5.627-61.794,158.688-177.358c14.928-10.046,34.819,2.773,31.685,20.547c-1.878,10.652-3.773,9.769-68.182,58.254
			c-13.321,10.985-17.72,20.95-19.911,32.31l16.531,2.915c3.313-16.951,7.321-16.929,74.662-68.905
			C998.341,1487.063,998.073,1457.929,976.58,1443.14z"/>
	</g>
	<g>
		<path d="M765.556,1453.072l49.894-86.419c16.909-29.287,61.647-3.759,44.607,25.754l-68.324,118.341
			c-20.203,34.992-41.589,34.846-161.201,70.778c-16.587,3.918-19.44,12.623-30.193,31.248l-80.325-46.376
			c46.131-80.398,15.847-59.992,209.778-112.387c17.464-4.335,31.771,14.515,22.747,30.145c-5.408,9.367-6.887,7.889-83.994,31.422
			c-16.275,5.767-23.816,13.626-29.761,23.552l14.537,8.393c8.911-14.796,12.67-13.404,93.726-39.213
			C770.983,1501.789,780.694,1474.321,765.556,1453.072z"/>
	</g>
	<g>
		<path d="M563.861,1390.231l76.442-64.142c25.906-21.738,59.215,17.552,33.109,39.457l-104.679,87.836
			c-30.952,25.972-50.998,18.52-175.687,11.375c-16.927-1.991-22.585,5.212-39.06,19.036l-59.62-71.052
			c70.847-59.771,35.41-50.954,235.566-33.861c17.893,1.899,24.891,24.506,11.065,36.106c-8.286,6.953-9.17,5.058-89.675,0.799
			c-17.266-0.147-27.04,4.659-36.021,11.953l10.79,12.859c13.434-10.856,16.49-8.262,101.486-4.792
			C552.299,1437.866,570.819,1415.376,563.861,1390.231z"/>
	</g>
	<g>
		<path d="M395.823,1262.196l93.77-34.129c31.779-11.567,49.641,36.746,17.617,48.402l-128.408,46.737
			c-37.968,13.819-54.257-0.039-168.982-49.399c-15.225-7.66-23.006-2.827-43.215,4.529l-31.723-87.158
			c87.017-31.936,50.702-35.77,232.94,48.749c16.164,7.905,15.008,31.541-1.951,37.714c-10.164,3.699-10.347,1.617-84.54-29.92
			c-16.174-6.043-27.003-4.871-37.937-1.088l5.741,15.774c16.336-5.607,18.322-2.124,97.004,30.207
			C368.666,1303.004,393.762,1288.204,395.823,1262.196z"/>
	</g>
	<g>
		<path d="M281.71,1084.41h99.788c33.818,0,34.079,51.508,0,51.508H244.849c-40.405,0-50.972-18.594-141.896-104.216
			c-11.687-12.406-20.652-10.525-42.158-10.525v-92.752c92.692-0.248,59.878-16.272,202.219,125.479
			c12.486,12.957,3.315,34.772-14.732,34.772c-10.816,0-10.276-2.019-69.209-57.03c-13.132-11.211-23.709-13.813-35.277-13.998
			v16.786c17.269,0.319,17.943,4.27,80.823,61.563C242.233,1113.468,270.877,1108.145,281.71,1084.41z"/>
	</g>
</g>
</svg>
